STARTFONT 2.1
FONT -Adobe-Utopia-Bold-I-Normal--14-100-100-100-P-78-ISO8859-2
SIZE 10 100 100
FONTBOUNDINGBOX 20 17 -2 -4
STARTPROPERTIES 29
FOUNDRY "Adobe"
FAMILY_NAME "Utopia"
WEIGHT_NAME "Bold"
SLANT "I"
SETWIDTH_NAME "Normal"
ADD_STYLE_NAME ""
PIXEL_SIZE 14
POINT_SIZE 100
RESOLUTION_X 100
RESOLUTION_Y 100
SPACING "P"
AVERAGE_WIDTH 78
CHARSET_REGISTRY "ISO8859"
CHARSET_ENCODING "2"
CAP_HEIGHT 10
X_HEIGHT 7
RELATIVE_SETWIDTH 50
RELATIVE_WEIGHT 70
WEIGHT 208
FACE_NAME "Utopia Bold Italic"
COPYRIGHT "Copyright (c) 1989, 1991 Adobe Systems Incorporated.  All Rights Reserved., Copyright 1996 Cub Soft"
NOTICE "Utopia is a registered trademark of Adobe Systems Incorporated."
DESTINATION 0
FONT_ASCENT 13
FONT_DESCENT 4
DEFAULT_CHAR 32
_ADOBE_PSFONT "Utopia-BoldItalic"
_ADOBE_XFONT "-Adobe-Utopia-Bold-I-Normal--14-100-100-100-P-78-ISO8859-2"
_DEC_DEVICE_FONTNAMES "PS=Utopia-BoldItalic"
ENDPROPERTIES
CHARS 191
STARTCHAR space
ENCODING 32
SWIDTH 210 0
DWIDTH 3 0
BBX 0 0 0 0
BITMAP
ENDCHAR
STARTCHAR exclam
ENCODING 33
SWIDTH 285 0
DWIDTH 4 0
BBX 4 10 1 0
BITMAP
30
30
20
20
60
40
00
40
c0
c0
ENDCHAR
STARTCHAR quotedbl
ENCODING 34
SWIDTH 455 0
DWIDTH 6 0
BBX 5 4 2 6
BITMAP
d8
d8
90
90
ENDCHAR
STARTCHAR numbersign
ENCODING 35
SWIDTH 560 0
DWIDTH 8 0
BBX 8 10 1 0
BITMAP
0a
12
12
7f
24
24
fe
48
48
d0
ENDCHAR
STARTCHAR dollar
ENCODING 36
SWIDTH 560 0
DWIDTH 8 0
BBX 8 11 1 -1
BITMAP
04
1c
2b
68
7c
3e
16
d6
d4
38
20
ENDCHAR
STARTCHAR percent
ENCODING 37
SWIDTH 896 0
DWIDTH 12 0
BBX 11 11 2 -1
BITMAP
0080
3f80
5900
d200
d400
69c0
0b60
1260
2640
4380
4000
ENDCHAR
STARTCHAR ampersand
ENCODING 38
SWIDTH 752 0
DWIDTH 10 0
BBX 10 9 1 0
BITMAP
0c00
1200
34c0
3580
7d00
dd00
ce00
e700
7980
ENDCHAR
STARTCHAR apostrophe
ENCODING 39
SWIDTH 246 0
DWIDTH 3 0
BBX 3 4 2 6
BITMAP
60
60
40
80
ENDCHAR
STARTCHAR parenleft
ENCODING 40
SWIDTH 350 0
DWIDTH 5 0
BBX 4 12 2 -2
BITMAP
10
30
60
40
40
c0
80
80
80
80
80
40
ENDCHAR
STARTCHAR parenright
ENCODING 41
SWIDTH 350 0
DWIDTH 5 0
BBX 4 12 1 -2
BITMAP
20
20
10
10
10
10
10
20
20
60
40
80
ENDCHAR
STARTCHAR asterisk
ENCODING 42
SWIDTH 500 0
DWIDTH 7 0
BBX 6 5 2 5
BITMAP
10
5c
30
e8
20
ENDCHAR
STARTCHAR plus
ENCODING 43
SWIDTH 600 0
DWIDTH 8 0
BBX 7 7 1 0
BITMAP
10
10
10
fe
10
10
10
ENDCHAR
STARTCHAR comma
ENCODING 44
SWIDTH 280 0
DWIDTH 4 0
BBX 3 5 0 -2
BITMAP
60
60
60
40
80
ENDCHAR
STARTCHAR minus
ENCODING 45
SWIDTH 600 0
DWIDTH 8 0
BBX 7 1 1 3
BITMAP
fe
ENDCHAR
STARTCHAR period
ENCODING 46
SWIDTH 280 0
DWIDTH 4 0
BBX 2 2 1 0
BITMAP
c0
c0
ENDCHAR
STARTCHAR slash
ENCODING 47
SWIDTH 260 0
DWIDTH 4 0
BBX 5 10 0 0
BITMAP
08
10
10
30
20
20
60
40
40
80
ENDCHAR
STARTCHAR zero
ENCODING 48
SWIDTH 560 0
DWIDTH 8 0
BBX 8 9 1 0
BITMAP
1e
33
63
63
c7
c6
c6
cc
78
ENDCHAR
STARTCHAR one
ENCODING 49
SWIDTH 560 0
DWIDTH 8 0
BBX 6 9 1 0
BITMAP
0c
3c
18
18
18
38
30
30
f8
ENDCHAR
STARTCHAR two
ENCODING 50
SWIDTH 560 0
DWIDTH 8 0
BBX 8 9 0 0
BITMAP
1e
33
33
07
0e
18
21
7e
fe
ENDCHAR
STARTCHAR three
ENCODING 51
SWIDTH 560 0
DWIDTH 8 0
BBX 7 9 1 0
BITMAP
3c
66
06
38
06
06
c6
cc
38
ENDCHAR
STARTCHAR four
ENCODING 52
SWIDTH 560 0
DWIDTH 8 0
BBX 7 9 1 0
BITMAP
06
0e
1c
24
2c
4c
fe
18
3c
ENDCHAR
STARTCHAR five
ENCODING 53
SWIDTH 560 0
DWIDTH 8 0
BBX 8 9 1 0
BITMAP
3f
3e
20
3c
46
06
c6
cc
78
ENDCHAR
STARTCHAR six
ENCODING 54
SWIDTH 560 0
DWIDTH 8 0
BBX 8 9 1 0
BITMAP
1e
33
63
78
e6
c6
c6
4c
38
ENDCHAR
STARTCHAR seven
ENCODING 55
SWIDTH 560 0
DWIDTH 8 0
BBX 7 9 2 0
BITMAP
7e
fe
04
08
10
20
60
e0
40
ENDCHAR
STARTCHAR eight
ENCODING 56
SWIDTH 560 0
DWIDTH 8 0
BBX 8 9 1 0
BITMAP
1e
73
63
66
3c
66
c6
cc
78
ENDCHAR
STARTCHAR nine
ENCODING 57
SWIDTH 560 0
DWIDTH 8 0
BBX 7 9 1 0
BITMAP
1c
26
66
66
3e
04
4c
c8
30
ENDCHAR
STARTCHAR colon
ENCODING 58
SWIDTH 280 0
DWIDTH 4 0
BBX 3 7 1 0
BITMAP
60
60
40
00
40
c0
c0
ENDCHAR
STARTCHAR semicolon
ENCODING 59
SWIDTH 280 0
DWIDTH 4 0
BBX 4 9 0 -2
BITMAP
30
30
00
00
60
60
60
40
80
ENDCHAR
STARTCHAR less
ENCODING 60
SWIDTH 600 0
DWIDTH 8 0
BBX 7 7 1 0
BITMAP
02
0e
38
e0
e0
38
06
ENDCHAR
STARTCHAR equal
ENCODING 61
SWIDTH 600 0
DWIDTH 8 0
BBX 7 4 1 1
BITMAP
fe
00
00
fe
ENDCHAR
STARTCHAR greater
ENCODING 62
SWIDTH 600 0
DWIDTH 8 0
BBX 7 7 1 0
BITMAP
80
e0
38
0e
0e
38
c0
ENDCHAR
STARTCHAR question
ENCODING 63
SWIDTH 454 0
DWIDTH 6 0
BBX 6 10 2 0
BITMAP
78
cc
8c
38
60
c0
f0
00
e0
c0
ENDCHAR
STARTCHAR at
ENCODING 64
SWIDTH 828 0
DWIDTH 11 0
BBX 11 10 1 0
BITMAP
0f80
3840
6320
6da0
cd20
d920
db40
5d80
2000
1f80
ENDCHAR
STARTCHAR A
ENCODING 65
SWIDTH 634 0
DWIDTH 9 0
BBX 10 10 0 0
BITMAP
0300
0300
0700
0700
0b00
1300
1f80
2180
2180
f3c0
ENDCHAR
STARTCHAR B
ENCODING 66
SWIDTH 680 0
DWIDTH 9 0
BBX 10 10 0 0
BITMAP
3f80
18c0
18c0
19c0
1f00
3900
3180
3180
3300
fe00
ENDCHAR
STARTCHAR C
ENCODING 67
SWIDTH 672 0
DWIDTH 9 0
BBX 8 10 2 0
BITMAP
1e
31
61
40
c0
c0
c0
c2
66
3c
ENDCHAR
STARTCHAR D
ENCODING 68
SWIDTH 774 0
DWIDTH 11 0
BBX 10 10 1 0
BITMAP
3f00
1980
18c0
18c0
30c0
30c0
3180
3180
7300
fe00
ENDCHAR
STARTCHAR E
ENCODING 69
SWIDTH 622 0
DWIDTH 9 0
BBX 9 10 1 0
BITMAP
7f80
3880
3080
3200
3e00
3200
6000
6100
6300
fe00
ENDCHAR
STARTCHAR F
ENCODING 70
SWIDTH 585 0
DWIDTH 8 0
BBX 9 10 1 0
BITMAP
3f80
1880
1880
1800
3100
3e00
3200
3000
6000
f800
ENDCHAR
STARTCHAR G
ENCODING 71
SWIDTH 726 0
DWIDTH 10 0
BBX 9 10 2 0
BITMAP
1f00
3180
6080
c000
c000
c780
c300
c700
6600
3c00
ENDCHAR
STARTCHAR H
ENCODING 72
SWIDTH 800 0
DWIDTH 11 0
BBX 12 10 1 0
BITMAP
3cf0
1860
18c0
38c0
3fc0
30c0
31c0
3180
6180
f3c0
ENDCHAR
STARTCHAR I
ENCODING 73
SWIDTH 386 0
DWIDTH 5 0
BBX 6 10 1 0
BITMAP
3c
18
18
30
30
30
30
60
60
f0
ENDCHAR
STARTCHAR J
ENCODING 74
SWIDTH 388 0
DWIDTH 5 0
BBX 7 12 0 -2
BITMAP
1e
0c
18
18
18
18
18
30
30
30
60
c0
ENDCHAR
STARTCHAR K
ENCODING 75
SWIDTH 688 0
DWIDTH 10 0
BBX 11 10 1 0
BITMAP
7de0
3980
3300
3400
3c00
3c00
7600
7600
6300
f180
ENDCHAR
STARTCHAR L
ENCODING 76
SWIDTH 586 0
DWIDTH 8 0
BBX 8 10 1 0
BITMAP
3c
18
18
38
30
30
70
71
73
fe
ENDCHAR
STARTCHAR M
ENCODING 77
SWIDTH 921 0
DWIDTH 13 0
BBX 14 10 0 0
BITMAP
3c1c
1c38
1c38
1458
1690
26b0
2730
2730
2660
f4f0
ENDCHAR
STARTCHAR N
ENCODING 78
SWIDTH 741 0
DWIDTH 10 0
BBX 12 10 0 0
BITMAP
3cf0
1c20
1c40
2e40
2640
2740
2380
2380
4180
f180
ENDCHAR
STARTCHAR O
ENCODING 79
SWIDTH 761 0
DWIDTH 11 0
BBX 9 10 2 0
BITMAP
1e00
3100
6180
6180
c180
c180
c300
c300
4600
3c00
ENDCHAR
STARTCHAR P
ENCODING 80
SWIDTH 660 0
DWIDTH 9 0
BBX 9 10 1 0
BITMAP
3e00
1980
3980
3180
3300
3e00
7000
6000
6000
f000
ENDCHAR
STARTCHAR Q
ENCODING 81
SWIDTH 761 0
DWIDTH 11 0
BBX 9 13 2 -3
BITMAP
1e00
3100
6180
6180
c180
c180
c300
c300
6600
3c00
1c00
0e00
0700
ENDCHAR
STARTCHAR R
ENCODING 82
SWIDTH 681 0
DWIDTH 9 0
BBX 9 10 1 0
BITMAP
3f00
1980
1980
1980
3300
3e00
3300
3300
7300
f180
ENDCHAR
STARTCHAR S
ENCODING 83
SWIDTH 551 0
DWIDTH 8 0
BBX 7 10 1 0
BITMAP
1c
22
62
70
7c
1e
86
86
c4
78
ENDCHAR
STARTCHAR T
ENCODING 84
SWIDTH 616 0
DWIDTH 9 0
BBX 9 10 2 0
BITMAP
ff80
9900
9900
1800
3800
3000
3000
3000
7000
f800
ENDCHAR
STARTCHAR U
ENCODING 85
SWIDTH 776 0
DWIDTH 11 0
BBX 10 10 2 0
BITMAP
fbc0
6180
6180
6300
6300
c300
c300
c600
c600
7800
ENDCHAR
STARTCHAR V
ENCODING 86
SWIDTH 630 0
DWIDTH 9 0
BBX 10 10 2 0
BITMAP
f3c0
6180
6100
6200
6200
3400
3400
3800
3000
3000
ENDCHAR
STARTCHAR W
ENCODING 87
SWIDTH 920 0
DWIDTH 13 0
BBX 13 10 2 0
BITMAP
f038
6310
6310
6720
6b20
6b40
6b40
7380
7380
6300
ENDCHAR
STARTCHAR X
ENCODING 88
SWIDTH 630 0
DWIDTH 9 0
BBX 11 10 0 0
BITMAP
3de0
1880
0d00
0e00
0e00
0e00
0e00
1300
2300
f7c0
ENDCHAR
STARTCHAR Y
ENCODING 89
SWIDTH 622 0
DWIDTH 9 0
BBX 9 10 2 0
BITMAP
f380
6300
6200
7400
3800
3800
3000
3000
7000
f800
ENDCHAR
STARTCHAR Z
ENCODING 90
SWIDTH 618 0
DWIDTH 9 0
BBX 10 10 0 0
BITMAP
1fc0
11c0
2380
0700
0e00
0c00
1800
3080
6100
ff00
ENDCHAR
STARTCHAR bracketleft
ENCODING 91
SWIDTH 350 0
DWIDTH 5 0
BBX 5 12 1 -2
BITMAP
38
30
20
20
20
60
40
40
40
40
c0
e0
ENDCHAR
STARTCHAR backslash
ENCODING 92
SWIDTH 460 0
DWIDTH 6 0
BBX 4 10 2 0
BITMAP
80
c0
40
40
40
20
20
20
30
10
ENDCHAR
STARTCHAR bracketright
ENCODING 93
SWIDTH 350 0
DWIDTH 5 0
BBX 5 12 0 -2
BITMAP
38
18
10
10
10
10
30
20
20
20
60
e0
ENDCHAR
STARTCHAR asciicircum
ENCODING 94
SWIDTH 600 0
DWIDTH 8 0
BBX 7 7 1 2
BITMAP
10
38
28
6c
44
44
c6
ENDCHAR
STARTCHAR underscore
ENCODING 95
SWIDTH 500 0
DWIDTH 7 0
BBX 7 1 0 -2
BITMAP
fe
ENDCHAR
STARTCHAR grave
ENCODING 96
SWIDTH 400 0
DWIDTH 6 0
BBX 4 3 2 7
BITMAP
c0
60
10
ENDCHAR
STARTCHAR a
ENCODING 97
SWIDTH 596 0
DWIDTH 8 0
BBX 8 7 1 0
BITMAP
1f
36
66
66
cc
dd
ee
ENDCHAR
STARTCHAR b
ENCODING 98
SWIDTH 586 0
DWIDTH 8 0
BBX 8 10 1 0
BITMAP
18
30
30
37
3b
33
62
66
64
b8
ENDCHAR
STARTCHAR c
ENCODING 99
SWIDTH 456 0
DWIDTH 6 0
BBX 7 7 1 0
BITMAP
1c
66
60
c0
c4
cc
70
ENDCHAR
STARTCHAR d
ENCODING 100
SWIDTH 609 0
DWIDTH 8 0
BBX 8 10 1 0
BITMAP
01
07
06
1e
26
66
cc
cc
dd
ee
ENDCHAR
STARTCHAR e
ENCODING 101
SWIDTH 476 0
DWIDTH 7 0
BBX 6 7 1 0
BITMAP
18
6c
4c
f8
c0
c8
70
ENDCHAR
STARTCHAR f
ENCODING 102
SWIDTH 348 0
DWIDTH 5 0
BBX 9 13 -1 -3
BITMAP
0300
0580
0c00
1f00
0c00
1800
1800
1800
1800
1000
3000
b000
e000
ENDCHAR
STARTCHAR g
ENCODING 103
SWIDTH 522 0
DWIDTH 7 0
BBX 9 10 0 -3
BITMAP
1d80
3300
3300
3300
7c00
6000
3e00
c600
c600
7800
ENDCHAR
STARTCHAR h
ENCODING 104
SWIDTH 629 0
DWIDTH 9 0
BBX 7 10 2 0
BITMAP
30
f0
60
6e
56
66
ec
c8
da
dc
ENDCHAR
STARTCHAR i
ENCODING 105
SWIDTH 339 0
DWIDTH 5 0
BBX 4 10 1 0
BITMAP
30
30
00
20
e0
60
60
c0
d0
e0
ENDCHAR
STARTCHAR j
ENCODING 106
SWIDTH 333 0
DWIDTH 5 0
BBX 7 13 -1 -3
BITMAP
06
06
00
0c
18
18
18
18
18
30
30
b0
e0
ENDCHAR
STARTCHAR k
ENCODING 107
SWIDTH 570 0
DWIDTH 8 0
BBX 8 10 1 0
BITMAP
10
70
30
27
69
68
68
68
cf
cc
ENDCHAR
STARTCHAR l
ENCODING 108
SWIDTH 327 0
DWIDTH 5 0
BBX 4 10 1 0
BITMAP
10
70
30
60
60
60
40
c0
d0
e0
ENDCHAR
STARTCHAR m
ENCODING 109
SWIDTH 914 0
DWIDTH 13 0
BBX 11 7 2 0
BITMAP
2ee0
f760
7740
6640
cc80
cda0
cdc0
ENDCHAR
STARTCHAR n
ENCODING 110
SWIDTH 635 0
DWIDTH 9 0
BBX 9 7 1 0
BITMAP
3700
6b00
3300
7200
6600
6680
c700
ENDCHAR
STARTCHAR o
ENCODING 111
SWIDTH 562 0
DWIDTH 8 0
BBX 7 7 1 0
BITMAP
3c
66
66
c6
cc
cc
78
ENDCHAR
STARTCHAR p
ENCODING 112
SWIDTH 606 0
DWIDTH 8 0
BBX 8 10 1 -3
BITMAP
27
6b
73
63
66
64
58
c0
c0
80
ENDCHAR
STARTCHAR q
ENCODING 113
SWIDTH 584 0
DWIDTH 8 0
BBX 8 10 1 -3
BITMAP
1d
36
66
c6
ce
d4
ec
0c
0c
10
ENDCHAR
STARTCHAR r
ENCODING 114
SWIDTH 440 0
DWIDTH 6 0
BBX 6 7 1 0
BITMAP
2c
fc
60
60
40
40
c0
ENDCHAR
STARTCHAR s
ENCODING 115
SWIDTH 417 0
DWIDTH 6 0
BBX 6 7 1 0
BITMAP
38
6c
60
30
18
d8
70
ENDCHAR
STARTCHAR t
ENCODING 116
SWIDTH 359 0
DWIDTH 5 0
BBX 5 9 1 0
BITMAP
10
60
f8
60
60
40
c0
d0
e0
ENDCHAR
STARTCHAR u
ENCODING 117
SWIDTH 634 0
DWIDTH 9 0
BBX 9 7 1 0
BITMAP
3100
e300
6300
6700
ce00
d680
e700
ENDCHAR
STARTCHAR v
ENCODING 118
SWIDTH 518 0
DWIDTH 7 0
BBX 6 7 2 0
BITMAP
6c
ec
4c
48
c8
d0
e0
ENDCHAR
STARTCHAR w
ENCODING 119
SWIDTH 795 0
DWIDTH 11 0
BBX 10 7 2 0
BITMAP
26c0
e6c0
64c0
4c80
dc80
dd00
ee00
ENDCHAR
STARTCHAR x
ENCODING 120
SWIDTH 516 0
DWIDTH 7 0
BBX 8 7 0 0
BITMAP
7b
1f
18
18
19
ae
cc
ENDCHAR
STARTCHAR y
ENCODING 121
SWIDTH 489 0
DWIDTH 7 0
BBX 8 10 0 -3
BITMAP
71
33
1a
1a
1a
1c
18
18
d0
e0
ENDCHAR
STARTCHAR z
ENCODING 122
SWIDTH 466 0
DWIDTH 6 0
BBX 8 7 0 0
BITMAP
3f
4e
1c
30
62
fc
8c
ENDCHAR
STARTCHAR braceleft
ENCODING 123
SWIDTH 340 0
DWIDTH 5 0
BBX 5 12 2 -2
BITMAP
18
20
20
60
60
80
40
40
40
80
80
c0
ENDCHAR
STARTCHAR bar
ENCODING 124
SWIDTH 265 0
DWIDTH 4 0
BBX 1 10 2 0
BITMAP
80
80
80
80
80
80
80
80
80
80
ENDCHAR
STARTCHAR braceright
ENCODING 125
SWIDTH 340 0
DWIDTH 5 0
BBX 5 12 0 -2
BITMAP
30
10
18
10
10
08
10
30
20
20
20
c0
ENDCHAR
STARTCHAR asciitilde
ENCODING 126
SWIDTH 600 0
DWIDTH 8 0
BBX 7 3 1 2
BITMAP
22
7c
88
ENDCHAR
STARTCHAR nobreakspace
ENCODING 160
SWIDTH 210 0
DWIDTH 3 0
BBX 0 0 0 0
BITMAP
ENDCHAR
STARTCHAR Aogonek
ENCODING 161
SWIDTH 634 0
DWIDTH 9 0
BBX 10 14 0 -4
BITMAP
0300
0300
0700
0700
0b00
1300
1f80
2180
2180
f3c0
0800
1000
1000
1c00
ENDCHAR
STARTCHAR breve
ENCODING 162
SWIDTH 400 0
DWIDTH 6 0
BBX 5 2 2 8
BITMAP
88
f0
ENDCHAR
STARTCHAR Lstroke
ENCODING 163
SWIDTH 592 0
DWIDTH 8 0
BBX 8 10 1 0
BITMAP
3c
18
18
3c
38
30
f0
21
62
fe
ENDCHAR
STARTCHAR currency
ENCODING 164
SWIDTH 560 0
DWIDTH 8 0
BBX 6 7 2 1
BITMAP
fc
cc
84
84
84
cc
fc
ENDCHAR
STARTCHAR Lcaron
ENCODING 165
SWIDTH 720 0
DWIDTH 10 0
BBX 10 11 1 0
BITMAP
00c0
3cc0
1880
1900
3800
3000
3000
7000
7100
7300
fe00
ENDCHAR
STARTCHAR Sacute
ENCODING 166
SWIDTH 551 0
DWIDTH 8 0
BBX 8 14 1 0
BITMAP
03
06
08
00
1c
22
62
70
7c
1e
86
86
c4
78
ENDCHAR
STARTCHAR section
ENCODING 167
SWIDTH 568 0
DWIDTH 8 0
BBX 7 12 1 -2
BITMAP
0e
12
10
78
4c
46
62
32
1c
48
c8
70
ENDCHAR
STARTCHAR diaeresis
ENCODING 168
SWIDTH 400 0
DWIDTH 6 0
BBX 6 2 2 8
BITMAP
cc
cc
ENDCHAR
STARTCHAR Scaron
ENCODING 169
SWIDTH 551 0
DWIDTH 8 0
BBX 8 14 1 0
BITMAP
11
0e
0c
00
1c
22
62
70
7c
1e
86
86
c4
78
ENDCHAR
STARTCHAR Scedilla
ENCODING 170
SWIDTH 551 0
DWIDTH 8 0
BBX 7 15 1 -5
BITMAP
1c
22
62
70
7c
1e
86
86
c4
78
08
10
18
08
10
ENDCHAR
STARTCHAR Tcaron
ENCODING 171
SWIDTH 616 0
DWIDTH 9 0
BBX 9 14 2 0
BITMAP
1100
0e00
0c00
0000
ff80
9900
9900
1800
3800
3000
3000
3000
7000
f800
ENDCHAR
STARTCHAR Zacute
ENCODING 172
SWIDTH 618 0
DWIDTH 9 0
BBX 10 14 0 0
BITMAP
00c0
0180
0200
0000
1fc0
11c0
2380
0700
0e00
0c00
1800
3080
6100
ff00
ENDCHAR
STARTCHAR hyphen
ENCODING 173
SWIDTH 392 0
DWIDTH 5 0
BBX 4 1 1 3
BITMAP
f0
ENDCHAR
STARTCHAR Zcaron
ENCODING 174
SWIDTH 618 0
DWIDTH 9 0
BBX 10 14 0 0
BITMAP
0440
0380
0300
0000
1fc0
11c0
2380
0700
0e00
0c00
1800
3080
6100
ff00
ENDCHAR
STARTCHAR Zabovedot
ENCODING 175
SWIDTH 618 0
DWIDTH 9 0
BBX 10 13 0 0
BITMAP
0300
0300
0000
1fc0
11c0
2380
0700
0e00
0c00
1800
3080
6100
ff00
ENDCHAR
STARTCHAR degree
ENCODING 176
SWIDTH 375 0
DWIDTH 5 0
BBX 4 4 2 5
BITMAP
60
90
90
60
ENDCHAR
STARTCHAR aogonek
ENCODING 177
SWIDTH 596 0
DWIDTH 8 0
BBX 8 11 1 -4
BITMAP
1f
36
66
66
cc
dd
ee
10
20
20
38
ENDCHAR
STARTCHAR ogonek
ENCODING 178
SWIDTH 350 0
DWIDTH 5 0
BBX 3 4 1 -4
BITMAP
40
80
80
e0
ENDCHAR
STARTCHAR lstroke
ENCODING 179
SWIDTH 339 0
DWIDTH 5 0
BBX 6 10 0 0
BITMAP
08
38
18
30
3c
30
f0
60
68
70
ENDCHAR
STARTCHAR acute
ENCODING 180
SWIDTH 400 0
DWIDTH 6 0
BBX 4 3 3 7
BITMAP
30
60
80
ENDCHAR
STARTCHAR lcaron
ENCODING 181
SWIDTH 648 0
DWIDTH 9 0
BBX 8 11 1 0
BITMAP
03
13
72
34
60
60
60
40
c0
d0
e0
ENDCHAR
STARTCHAR sacute
ENCODING 182
SWIDTH 417 0
DWIDTH 6 0
BBX 7 11 1 0
BITMAP
06
0c
10
00
38
6c
60
30
18
d8
70
ENDCHAR
STARTCHAR caron
ENCODING 183
SWIDTH 400 0
DWIDTH 6 0
BBX 5 3 2 7
BITMAP
88
70
60
ENDCHAR
STARTCHAR cedilla
ENCODING 184
SWIDTH 400 0
DWIDTH 6 0
BBX 2 5 2 -4
BITMAP
40
80
c0
40
80
ENDCHAR
STARTCHAR scaron
ENCODING 185
SWIDTH 417 0
DWIDTH 6 0
BBX 7 11 1 0
BITMAP
22
1c
18
00
38
6c
60
30
18
d8
70
ENDCHAR
STARTCHAR scedilla
ENCODING 186
SWIDTH 417 0
DWIDTH 6 0
BBX 6 12 1 -5
BITMAP
38
6c
60
30
18
d8
70
10
20
30
10
20
ENDCHAR
STARTCHAR tcaron
ENCODING 187
SWIDTH 576 0
DWIDTH 8 0
BBX 8 12 1 0
BITMAP
03
03
02
14
60
f8
60
60
40
c0
d0
e0
ENDCHAR
STARTCHAR zacute
ENCODING 188
SWIDTH 466 0
DWIDTH 6 0
BBX 8 11 0 0
BITMAP
03
06
08
00
3f
4e
1c
30
62
fc
8c
ENDCHAR
STARTCHAR doubleacute
ENCODING 189
SWIDTH 400 0
DWIDTH 6 0
BBX 4 3 3 7
BITMAP
50
90
a0
ENDCHAR
STARTCHAR zcaron
ENCODING 190
SWIDTH 466 0
DWIDTH 6 0
BBX 8 11 0 0
BITMAP
11
0e
0c
00
3f
4e
1c
30
62
fc
8c
ENDCHAR
STARTCHAR zabovedot
ENCODING 191
SWIDTH 466 0
DWIDTH 6 0
BBX 8 10 0 0
BITMAP
0c
0c
00
3f
4e
1c
30
62
fc
8c
ENDCHAR
STARTCHAR Racute
ENCODING 192
SWIDTH 681 0
DWIDTH 9 0
BBX 9 14 1 0
BITMAP
0180
0300
0400
0000
3f00
1980
1980
1980
3300
3e00
3300
3300
7300
f180
ENDCHAR
STARTCHAR Aacute
ENCODING 193
SWIDTH 634 0
DWIDTH 9 0
BBX 10 13 0 0
BITMAP
00c0
0380
0000
0300
0300
0700
0700
0b00
1300
1f80
2180
2180
f3c0
ENDCHAR
STARTCHAR Acircumflex
ENCODING 194
SWIDTH 634 0
DWIDTH 9 0
BBX 10 12 0 0
BITMAP
0780
0040
0300
0300
0700
0700
0b00
1300
1f80
2180
2180
f3c0
ENDCHAR
STARTCHAR Abreve
ENCODING 195
SWIDTH 634 0
DWIDTH 9 0
BBX 11 13 0 0
BITMAP
0220
03c0
0000
0300
0300
0700
0700
0b00
1300
1f80
2180
2180
f3c0
ENDCHAR
STARTCHAR Adiaeresis
ENCODING 196
SWIDTH 634 0
DWIDTH 9 0
BBX 9 12 0 0
BITMAP
0d80
0d80
0000
0600
0600
0a00
0b00
1300
3f00
2300
4300
e780
ENDCHAR
STARTCHAR Lacute
ENCODING 197
SWIDTH 586 0
DWIDTH 8 0
BBX 8 14 1 0
BITMAP
03
06
08
00
3c
18
18
38
30
30
70
71
73
fe
ENDCHAR
STARTCHAR Cacute
ENCODING 198
SWIDTH 672 0
DWIDTH 9 0
BBX 9 14 2 0
BITMAP
0180
0300
0400
0000
1e00
3100
6100
4000
c000
c000
c000
c200
6600
3c00
ENDCHAR
STARTCHAR Ccedilla
ENCODING 199
SWIDTH 672 0
DWIDTH 9 0
BBX 8 14 2 -4
BITMAP
0e
31
61
60
c0
c0
c0
c2
66
1c
10
18
08
30
ENDCHAR
STARTCHAR Ccaron
ENCODING 200
SWIDTH 672 0
DWIDTH 9 0
BBX 9 14 2 0
BITMAP
0880
0700
0600
0000
1e00
3100
6100
4000
c000
c000
c000
c200
6600
3c00
ENDCHAR
STARTCHAR Eacute
ENCODING 201
SWIDTH 622 0
DWIDTH 9 0
BBX 9 13 1 0
BITMAP
0100
0f00
0000
7f80
3880
3080
3200
3e00
3200
6000
6100
6300
fe00
ENDCHAR
STARTCHAR Eogonek
ENCODING 202
SWIDTH 622 0
DWIDTH 9 0
BBX 9 14 1 -4
BITMAP
7f80
3880
3080
3200
3e00
3200
6000
6100
6300
fe00
0800
1000
1000
1c00
ENDCHAR
STARTCHAR Ediaeresis
ENCODING 203
SWIDTH 622 0
DWIDTH 9 0
BBX 8 12 1 0
BITMAP
1b
1b
3f
19
30
32
3e
32
30
62
62
fe
ENDCHAR
STARTCHAR Ecaron
ENCODING 204
SWIDTH 622 0
DWIDTH 9 0
BBX 9 14 1 0
BITMAP
0880
0700
0600
0000
7f80
3880
3080
3200
3e00
3200
6000
6100
6300
fe00
ENDCHAR
STARTCHAR Iacute
ENCODING 205
SWIDTH 386 0
DWIDTH 5 0
BBX 7 13 0 0
BITMAP
06
1e
00
3c
18
18
18
30
30
30
30
70
f8
ENDCHAR
STARTCHAR Icircumflex
ENCODING 206
SWIDTH 386 0
DWIDTH 5 0
BBX 7 12 1 0
BITMAP
3e
00
3c
18
18
18
30
30
30
30
60
f0
ENDCHAR
STARTCHAR Dcaron
ENCODING 207
SWIDTH 774 0
DWIDTH 11 0
BBX 10 14 1 0
BITMAP
0880
0700
0600
0000
3f00
1980
18c0
18c0
30c0
30c0
3180
3180
7300
fe00
ENDCHAR
STARTCHAR Dstroke
ENCODING 208
SWIDTH 780 0
DWIDTH 11 0
BBX 10 10 1 0
BITMAP
3f00
1880
18c0
10c0
7cc0
30c0
3180
3180
7300
fe00
ENDCHAR
STARTCHAR Nacute
ENCODING 209
SWIDTH 741 0
DWIDTH 10 0
BBX 12 14 0 0
BITMAP
0060
00c0
0100
0000
3cf0
1c20
1c40
2e40
2640
2740
2380
2380
4180
f180
ENDCHAR
STARTCHAR Ncaron
ENCODING 210
SWIDTH 741 0
DWIDTH 10 0
BBX 12 14 0 0
BITMAP
0220
01c0
0180
0000
3cf0
1c20
1c40
2e40
2640
2740
2380
2380
4180
f180
ENDCHAR
STARTCHAR Oacute
ENCODING 211
SWIDTH 761 0
DWIDTH 11 0
BBX 9 13 2 0
BITMAP
0100
0f00
0000
1e00
3100
6180
6180
c180
c180
c300
c300
4600
3c00
ENDCHAR
STARTCHAR Ocircumflex
ENCODING 212
SWIDTH 761 0
DWIDTH 11 0
BBX 9 12 2 0
BITMAP
0700
1800
1e00
3100
6180
6180
c180
c180
c300
c300
4600
3c00
ENDCHAR
STARTCHAR Odoubleacute
ENCODING 213
SWIDTH 761 0
DWIDTH 11 0
BBX 9 14 2 0
BITMAP
0500
0900
0a00
0000
1e00
3100
6180
6180
c180
c180
c300
c300
4600
3c00
ENDCHAR
STARTCHAR Odiaeresis
ENCODING 214
SWIDTH 761 0
DWIDTH 11 0
BBX 9 12 2 0
BITMAP
1b00
1900
1e00
3100
6180
6180
c180
c180
c300
c300
4600
3c00
ENDCHAR
STARTCHAR multiply
ENCODING 215
SWIDTH 600 0
DWIDTH 8 0
BBX 6 6 2 0
BITMAP
84
48
30
30
48
84
ENDCHAR
STARTCHAR Rcaron
ENCODING 216
SWIDTH 681 0
DWIDTH 9 0
BBX 9 14 1 0
BITMAP
0880
0700
0600
0000
3f00
1980
1980
1980
3300
3e00
3300
3300
7300
f180
ENDCHAR
STARTCHAR Uring
ENCODING 217
SWIDTH 776 0
DWIDTH 11 0
BBX 10 15 2 0
BITMAP
0400
0a00
0a00
0400
0000
fbc0
6180
6180
6300
6300
c300
c300
c600
c600
7800
ENDCHAR
STARTCHAR Uacute
ENCODING 218
SWIDTH 776 0
DWIDTH 11 0
BBX 10 13 2 0
BITMAP
0180
0780
0000
fbc0
6180
6180
6300
6300
c300
c300
c600
c600
7800
ENDCHAR
STARTCHAR Udoubleacute
ENCODING 219
SWIDTH 776 0
DWIDTH 11 0
BBX 10 14 2 0
BITMAP
0500
0900
0a00
0000
fbc0
6180
6180
6300
6300
c300
c300
c600
c600
7800
ENDCHAR
STARTCHAR Udiaeresis
ENCODING 220
SWIDTH 776 0
DWIDTH 11 0
BBX 10 12 2 0
BITMAP
1b00
1b00
fbc0
7180
6100
6300
6300
c300
c300
c600
c600
3800
ENDCHAR
STARTCHAR Yacute
ENCODING 221
SWIDTH 622 0
DWIDTH 9 0
BBX 9 13 2 0
BITMAP
0100
0f00
0000
f380
6300
6200
7400
3800
3800
3000
3000
7000
f800
ENDCHAR
STARTCHAR Tcedilla
ENCODING 222
SWIDTH 616 0
DWIDTH 9 0
BBX 9 15 2 -5
BITMAP
ff80
9900
9900
1800
3800
3000
3000
3000
7000
f800
0400
0800
0c00
0400
0800
ENDCHAR
STARTCHAR ssharp
ENCODING 223
SWIDTH 628 0
DWIDTH 9 0
BBX 12 13 -2 -3
BITMAP
01e0
0730
0630
1ee0
0c80
0d80
0de0
0c60
1940
19c0
1800
d000
6000
ENDCHAR
STARTCHAR racute
ENCODING 224
SWIDTH 440 0
DWIDTH 6 0
BBX 6 11 1 0
BITMAP
0c
18
20
00
2c
fc
60
60
40
40
c0
ENDCHAR
STARTCHAR aacute
ENCODING 225
SWIDTH 596 0
DWIDTH 8 0
BBX 8 10 1 0
BITMAP
03
0c
00
1f
36
66
66
cc
dd
ee
ENDCHAR
STARTCHAR acircumflex
ENCODING 226
SWIDTH 596 0
DWIDTH 8 0
BBX 8 11 1 0
BITMAP
04
0c
32
00
1f
36
66
66
cc
dd
ee
ENDCHAR
STARTCHAR abreve
ENCODING 227
SWIDTH 596 0
DWIDTH 8 0
BBX 8 10 1 0
BITMAP
11
1e
00
1f
36
66
66
cc
dd
ee
ENDCHAR
STARTCHAR adiaeresis
ENCODING 228
SWIDTH 596 0
DWIDTH 8 0
BBX 8 10 1 0
BITMAP
33
33
00
1f
36
66
66
cc
dd
ee
ENDCHAR
STARTCHAR lacute
ENCODING 229
SWIDTH 327 0
DWIDTH 5 0
BBX 6 14 1 0
BITMAP
0c
18
20
00
10
70
30
60
60
60
40
c0
d0
e0
ENDCHAR
STARTCHAR cacute
ENCODING 230
SWIDTH 456 0
DWIDTH 6 0
BBX 7 11 1 0
BITMAP
06
0c
10
00
1c
66
60
c0
c4
cc
70
ENDCHAR
STARTCHAR ccedilla
ENCODING 231
SWIDTH 456 0
DWIDTH 6 0
BBX 7 11 1 -4
BITMAP
1c
66
60
c0
c8
c8
70
40
60
20
40
ENDCHAR
STARTCHAR ccaron
ENCODING 232
SWIDTH 456 0
DWIDTH 6 0
BBX 7 11 1 0
BITMAP
22
1c
18
00
1c
66
60
c0
c4
cc
70
ENDCHAR
STARTCHAR eacute
ENCODING 233
SWIDTH 476 0
DWIDTH 7 0
BBX 6 10 1 0
BITMAP
04
18
00
18
6c
4c
f8
c0
c8
70
ENDCHAR
STARTCHAR eogonek
ENCODING 234
SWIDTH 476 0
DWIDTH 7 0
BBX 6 11 1 -4
BITMAP
18
6c
4c
f8
c0
c8
70
20
40
40
70
ENDCHAR
STARTCHAR ediaeresis
ENCODING 235
SWIDTH 476 0
DWIDTH 7 0
BBX 7 10 1 0
BITMAP
36
36
00
18
6c
4c
f8
c0
c8
70
ENDCHAR
STARTCHAR ecaron
ENCODING 236
SWIDTH 476 0
DWIDTH 7 0
BBX 7 11 1 0
BITMAP
22
1c
18
00
18
6c
4c
f8
c0
c8
70
ENDCHAR
STARTCHAR iacute
ENCODING 237
SWIDTH 339 0
DWIDTH 5 0
BBX 5 10 1 0
BITMAP
18
70
00
20
e0
60
60
c0
d0
e0
ENDCHAR
STARTCHAR icircumflex
ENCODING 238
SWIDTH 339 0
DWIDTH 5 0
BBX 5 11 1 0
BITMAP
20
70
90
88
20
e0
60
60
c0
d0
e0
ENDCHAR
STARTCHAR dcaron
ENCODING 239
SWIDTH 864 0
DWIDTH 12 0
BBX 12 11 1 0
BITMAP
0030
0130
0720
0640
1e00
2600
6600
cc00
cc00
dd00
ee00
ENDCHAR
STARTCHAR dstroke
ENCODING 240
SWIDTH 792 0
DWIDTH 11 0
BBX 11 10 1 0
BITMAP
0100
0300
ffe0
1e00
2600
6600
cc00
cc00
dd00
ee00
ENDCHAR
STARTCHAR nacute
ENCODING 241
SWIDTH 635 0
DWIDTH 9 0
BBX 9 11 1 0
BITMAP
0300
0600
0800
0000
3700
6b00
3300
7200
6600
6680
c700
ENDCHAR
STARTCHAR ncaron
ENCODING 242
SWIDTH 635 0
DWIDTH 9 0
BBX 9 11 1 0
BITMAP
1100
0e00
0c00
0000
3700
6b00
3300
7200
6600
6680
c700
ENDCHAR
STARTCHAR oacute
ENCODING 243
SWIDTH 562 0
DWIDTH 8 0
BBX 7 10 1 0
BITMAP
06
1c
00
3c
66
66
c6
cc
cc
78
ENDCHAR
STARTCHAR ocircumflex
ENCODING 244
SWIDTH 562 0
DWIDTH 8 0
BBX 7 11 1 0
BITMAP
08
1c
64
00
3c
66
66
c6
cc
cc
78
ENDCHAR
STARTCHAR odoubleacute
ENCODING 245
SWIDTH 562 0
DWIDTH 8 0
BBX 7 11 1 0
BITMAP
14
24
28
00
3c
66
66
c6
cc
cc
78
ENDCHAR
STARTCHAR odiaeresis
ENCODING 246
SWIDTH 562 0
DWIDTH 8 0
BBX 8 10 1 0
BITMAP
33
33
00
3c
66
66
c6
cc
cc
78
ENDCHAR
STARTCHAR division
ENCODING 247
SWIDTH 600 0
DWIDTH 8 0
BBX 6 7 2 0
BITMAP
30
30
00
fc
00
30
30
ENDCHAR
STARTCHAR rcaron
ENCODING 248
SWIDTH 440 0
DWIDTH 6 0
BBX 6 11 1 0
BITMAP
44
38
30
00
2c
fc
60
60
40
40
c0
ENDCHAR
STARTCHAR uring
ENCODING 249
SWIDTH 634 0
DWIDTH 9 0
BBX 9 12 1 0
BITMAP
1000
2800
2800
1000
0000
3100
e300
6300
6700
ce00
d680
e700
ENDCHAR
STARTCHAR uacute
ENCODING 250
SWIDTH 634 0
DWIDTH 9 0
BBX 9 10 1 0
BITMAP
0180
0300
0400
3100
e300
6300
6700
ce00
d680
e700
ENDCHAR
STARTCHAR udoubleacute
ENCODING 251
SWIDTH 634 0
DWIDTH 9 0
BBX 9 11 1 0
BITMAP
1400
2400
2800
0000
3100
e300
6300
6700
ce00
d680
e700
ENDCHAR
STARTCHAR udiaeresis
ENCODING 252
SWIDTH 634 0
DWIDTH 9 0
BBX 9 10 1 0
BITMAP
1b00
1b00
0000
3100
e300
6300
6700
ce00
d680
e700
ENDCHAR
STARTCHAR yacute
ENCODING 253
SWIDTH 489 0
DWIDTH 7 0
BBX 8 13 0 -3
BITMAP
03
0e
00
71
33
1a
1a
1a
1c
18
18
d0
e0
ENDCHAR
STARTCHAR tcedilla
ENCODING 254
SWIDTH 359 0
DWIDTH 5 0
BBX 5 14 1 -5
BITMAP
10
60
f8
60
60
40
c0
d0
e0
10
20
30
10
20
ENDCHAR
STARTCHAR abovedot
ENCODING 255
SWIDTH 402 0
DWIDTH 6 0
BBX 2 2 4 8
BITMAP
c0
c0
ENDCHAR
ENDFONT
